<svg class="animated" id="freepik_stories-music" xmlns="http://www.w3.org/2000/svg" viewBox="0 0 500 500" version="1.1" xmlns:xlink="http://www.w3.org/1999/xlink" xmlns:svgjs="http://svgjs.com/svgjs"><style>svg#freepik_stories-music:not(.animated) .animable {opacity: 0;}svg#freepik_stories-music.animated #freepik--Character--inject-38 {animation: 1.5s Infinite  linear heartbeat;animation-delay: 0s;}            @keyframes heartbeat {                0% {                    transform: scale(1);                }                10% {                    transform: scale(1.1);                }                30% {                    transform: scale(1);                }                40% {                    transform: scale(1);                }                50% {                    transform: scale(1.1);                }                60% {                    transform: scale(1);                }                100% {                    transform: scale(1);                }            }        </style><g id="freepik--Floor--inject-38" class="animable" style="transform-origin: 251.12px 340.38px;"><ellipse id="freepik--floor--inject-38" cx="251.12" cy="340.38" rx="238.53" ry="140.13" style="fill: rgb(245, 245, 245); transform-origin: 251.12px 340.38px;" class="animable"></ellipse></g><g id="freepik--Shadows--inject-38" class="animable" style="transform-origin: 231.738px 360.459px;"><path id="freepik--Shadow--inject-38" d="M104.87,421.23,32,379.17c-2.54-1.47-2.54-3.85,0-5.32L163.7,297.8a10.15,10.15,0,0,1,9.2,0l72.86,42.07c2.55,1.47,2.55,3.85,0,5.32l-131.68,76A10.17,10.17,0,0,1,104.87,421.23Z" style="fill: rgb(224, 224, 224); transform-origin: 138.884px 359.505px;" class="animable"></path><ellipse id="freepik--shadow--inject-38" cx="363.73" cy="384.01" rx="69.65" ry="40.21" style="fill: rgb(224, 224, 224); transform-origin: 363.73px 384.01px;" class="animable"></ellipse></g><g id="freepik--Plants--inject-38" class="animable" style="transform-origin: 65.5467px 334.479px;"><g id="freepik--plants--inject-38" class="animable" style="transform-origin: 65.5467px 334.479px;"><path d="M100.22,344.26c.32-11.76-3-31.48-14.54-51.16C73.28,272,56.92,257.92,43.16,262.21c-12.8,4-10,21.38,9.27,40.32,13.51,13.28,27.19,30.14,33.44,49.4l10.84,24.81Z" style="fill: #BA68C8; transform-origin: 67.7914px 319.09px;" id="elj5u5vdylqb" class="animable"></path><path d="M100.22,344.26c.32-11.76-3-31.48-14.54-51.16C73.28,272,56.92,257.92,43.16,262.21c-12.8,4-10,21.38,9.27,40.32,13.51,13.28,27.19,30.14,33.44,49.4l10.84,24.81Z" style="fill: #BA68C8; transform-origin: 67.7914px 319.09px;" id="elnl800thz57m" class="animable"></path><g id="elu2zdtlko72f"><g style="opacity: 0.1; transform-origin: 67.7914px 319.09px;" class="animable" id="elmmftp7qqqmn"><path d="M100.22,344.26c.32-11.76-3-31.48-14.54-51.16C73.28,272,56.92,257.92,43.16,262.21c-12.8,4-10,21.38,9.27,40.32,13.51,13.28,27.19,30.14,33.44,49.4l10.84,24.81Z" id="eldduq6a6mmnr" class="animable" style="transform-origin: 67.7914px 319.09px;"></path></g></g><g id="el4b57w8wtdgn"><g style="opacity: 0.2; transform-origin: 67.7914px 319.09px;" class="animable" id="elyejavkiupn"><path d="M100.22,344.26c.32-11.76-3-31.48-14.54-51.16C73.28,272,56.92,257.92,43.16,262.21c-12.8,4-10,21.38,9.27,40.32,13.51,13.28,27.19,30.14,33.44,49.4l10.84,24.81Z" id="elyyiv5xqtxd" class="animable" style="transform-origin: 67.7914px 319.09px;"></path></g></g><path d="M98.08,353a.83.83,0,0,1-.72-.63c-8.25-33.58-29.16-68.92-48.64-82.2a.83.83,0,0,1,.93-1.38C69.44,282.3,90.64,318.05,99,352a.84.84,0,0,1-.61,1A1,1,0,0,1,98.08,353Z" style="fill: rgb(255, 255, 255); transform-origin: 73.6869px 310.83px;" id="el6uagksjm06s" class="animable"></path><path d="M97.1,400.73s-9.67,6.47-24.68,6.78-24.07-7.69-24.07-7.69,11.23-12.9,20.1-15.61a45,45,0,0,0-25.62,10.3s-12.36-5-14-19.15c0,0,8.53-7,27-9a90,90,0,0,0-10.86-2.77,103.66,103.66,0,0,0-19.14-.71c-5.15-9.3-1.35-22.09-3.95-32.41,11-4.51,23.54-3.47,35.21-1a11.28,11.28,0,0,1,4.5,1.66,10.54,10.54,0,0,1,3.29,5.21,50.31,50.31,0,0,1,2.39,9.6,45.77,45.77,0,0,0,6.39-12.26c4.33.62,13.29,2.41,18.56,7.4.5,7.15-.56,12.45-2.51,19.75,7.12-5.21,7.22-8.32,9.78-13.21a28.12,28.12,0,0,1,9.7,19.79,54.56,54.56,0,0,1-.21,6.64,44.72,44.72,0,0,1-.8,7.78,42.9,42.9,0,0,1-2.43,6.91A34,34,0,0,1,97.1,400.73Z" style="fill: #BA68C8; transform-origin: 65.5467px 367.436px;" id="elguorrh0r7rq" class="animable"></path><g id="eloscm60kdlke"><path d="M97.1,400.73s-9.67,6.47-24.68,6.78-24.07-7.69-24.07-7.69,11.23-12.9,20.1-15.61a45,45,0,0,0-25.62,10.3s-12.36-5-14-19.15c0,0,8.53-7,27-9a90,90,0,0,0-10.86-2.77,103.66,103.66,0,0,0-19.14-.71c-5.15-9.3-1.35-22.09-3.95-32.41,11-4.51,23.54-3.47,35.21-1a11.28,11.28,0,0,1,4.5,1.66,10.54,10.54,0,0,1,3.29,5.21,50.31,50.31,0,0,1,2.39,9.6,45.77,45.77,0,0,0,6.39-12.26c4.33.62,13.29,2.41,18.56,7.4.5,7.15-.56,12.45-2.51,19.75,7.12-5.21,7.22-8.32,9.78-13.21a28.12,28.12,0,0,1,9.7,19.79,54.56,54.56,0,0,1-.21,6.64,44.72,44.72,0,0,1-.8,7.78,42.9,42.9,0,0,1-2.43,6.91A34,34,0,0,1,97.1,400.73Z" style="opacity: 0.4; transform-origin: 65.5467px 367.436px;" class="animable" id="elftmauvkwus9"></path></g><path d="M97,401.56a.85.85,0,0,1-.67-.57c-8.47-26.25-48.58-60.91-63.93-66.14a.83.83,0,0,1-.52-1.06.82.82,0,0,1,1-.52c15.61,5.32,56.39,40.54,65,67.21a.83.83,0,0,1-.54,1A.92.92,0,0,1,97,401.56Z" style="fill: rgb(255, 255, 255); transform-origin: 64.8707px 367.399px;" id="elxlegukx4vec" class="animable"></path></g></g><g id="freepik--Device--inject-38" class="animable" style="transform-origin: 168.835px 227.976px;"><g id="freepik--device--inject-38" class="animable" style="transform-origin: 168.835px 227.976px;"><g id="freepik--Mobile--inject-38" class="animable" style="transform-origin: 168.835px 227.976px;"><path d="M222.86,42,102.23,111.67a13,13,0,0,0-6.5,10.79V402.91c0,4.42,2.72,9.58,6.09,11.52s9.19,1.73,13-.48L235,344.56a15.37,15.37,0,0,0,6.93-12V53.05c0-4.42-2.73-9.57-6.09-11.52S226.68,39.81,222.86,42Z" style="fill: #BA68C8; transform-origin: 168.83px 227.979px;" id="elmmpk2zzxf6b" class="animable"></path><g id="eltgogjsoczz"><path d="M113.18,414.74c-3.7,1.44-8.45,1.37-11.36-.31-3.36-1.94-6.09-7.1-6.09-11.52V122.46a12.41,12.41,0,0,1,1.75-5.94l11.18,6.34a13.52,13.52,0,0,0-3.23,8.08V408.53C105.43,413.85,108.79,416.37,113.18,414.74Z" style="opacity: 0.15; transform-origin: 104.455px 266.14px;" class="animable" id="eleimlptsgp7i"></path></g><path d="M111.54,120.35a13.57,13.57,0,0,0-6.11,10.59v277.6c0,6,4.23,8.41,9.4,5.42L235,344.56a15.37,15.37,0,0,0,6.93-12V53.05c0-4.4-3.12-6.2-6.93-4Z" style="fill: #BA68C8; transform-origin: 173.68px 231.677px;" id="el2ar119iydd" class="animable"></path><path d="M117.81,137.45a14.56,14.56,0,0,0-6.59,11.41V387.72c0,4.2,2.94,5.91,6.58,3.81l113.08-65.3a14.6,14.6,0,0,0,6.58-11.4V76c0-4.18-3-5.89-6.58-3.8Z" style="fill: rgb(55, 71, 79); transform-origin: 174.34px 231.868px;" id="elqqoqvy70agi" class="animable"></path><path d="M229.89,325.56a14.6,14.6,0,0,0,6.58-11.4V75.29a5.14,5.14,0,0,0-1.3-3.76,4.86,4.86,0,0,0-4.28.63L117.81,137.45a14.56,14.56,0,0,0-6.59,11.41V387.72a5.13,5.13,0,0,0,1.29,3.77,4.89,4.89,0,0,0,4.29-.63Z" style="fill: rgb(69, 90, 100); transform-origin: 173.844px 231.51px;" id="elm282za54k8" class="animable"></path><path d="M164.93,98.6,185,87c1.19-.69,2.16-.2,2.16,1.09a4.65,4.65,0,0,1-2.16,3.6l-20,11.57c-1.2.69-2.17.2-2.17-1.1A4.64,4.64,0,0,1,164.93,98.6Z" style="fill: rgb(69, 90, 100); transform-origin: 174.995px 95.1299px;" id="elthrt0gw5b5h" class="animable"></path><path d="M199.32,78.71c1.12-.64,2-.12,2,1.18a4.47,4.47,0,0,1-2,3.51c-1.13.65-2,.13-2-1.17A4.46,4.46,0,0,1,199.32,78.71Z" style="fill: rgb(69, 90, 100); transform-origin: 199.32px 81.0582px;" id="eljrub2jud31q" class="animable"></path><path d="M207.45,74c1.12-.65,2-.13,2,1.17a4.51,4.51,0,0,1-2,3.52c-1.13.64-2,.12-2-1.18A4.46,4.46,0,0,1,207.45,74Z" style="fill: rgb(69, 90, 100); transform-origin: 207.45px 76.3418px;" id="elamzefo2bikh" class="animable"></path><path d="M142.45,111.55c1.12-.65,2-.12,2,1.17a4.49,4.49,0,0,1-2,3.52c-1.12.65-2,.12-2-1.17A4.49,4.49,0,0,1,142.45,111.55Z" style="fill: rgb(69, 90, 100); transform-origin: 142.45px 113.895px;" id="eldjbth0al6go" class="animable"></path><path d="M150.58,106.86c1.12-.64,2-.12,2,1.18a4.47,4.47,0,0,1-2,3.51c-1.12.65-2,.13-2-1.17A4.51,4.51,0,0,1,150.58,106.86Z" style="fill: rgb(69, 90, 100); transform-origin: 150.58px 109.208px;" id="el7hlahrflyti" class="animable"></path><path d="M103.21,164.42a4.65,4.65,0,0,0-2-3.67,1.37,1.37,0,0,0-1.39-.12c-.26.16-1.26.72-1.53.88a1.6,1.6,0,0,0-.62,1.44v32.52a4.63,4.63,0,0,0,2,3.67,1.39,1.39,0,0,0,1.34.15c.28-.15,1.3-.74,1.57-.9a1.58,1.58,0,0,0,.63-1.45Z" style="fill: #BA68C8; transform-origin: 100.441px 179.946px;" id="eldze52dmad9i" class="animable"></path><g id="elyhqu0spihfg"><path d="M103.21,164.42a4.65,4.65,0,0,0-2-3.67,1.37,1.37,0,0,0-1.39-.12c-.26.16-1.26.72-1.53.88a1.6,1.6,0,0,0-.62,1.44v32.52a4.63,4.63,0,0,0,2,3.67,1.39,1.39,0,0,0,1.34.15c.28-.15,1.3-.74,1.57-.9a1.58,1.58,0,0,0,.63-1.45Z" style="opacity: 0.4; transform-origin: 100.441px 179.946px;" class="animable" id="eli1qtvb7nx6t"></path></g><path d="M101.7,165.29v32.53c0,1.38-.91,2-2,1.32a4.63,4.63,0,0,1-2-3.67V163c0-1.38.91-2,2-1.33A4.65,4.65,0,0,1,101.7,165.29Z" style="fill: #BA68C8; transform-origin: 99.7px 180.408px;" id="ell78fubfsjqm" class="animable"></path><path d="M103.21,208a4.66,4.66,0,0,0-2-3.68,1.34,1.34,0,0,0-1.39-.11l-1.53.87a1.6,1.6,0,0,0-.62,1.44v15.33a4.65,4.65,0,0,0,2,3.68,1.36,1.36,0,0,0,1.34.14c.28-.15,1.3-.74,1.57-.9a1.58,1.58,0,0,0,.63-1.44Z" style="fill: #BA68C8; transform-origin: 100.44px 214.925px;" id="elhth9ahrhww4" class="animable"></path><g id="el8aft01ok2jk"><path d="M103.21,208a4.66,4.66,0,0,0-2-3.68,1.34,1.34,0,0,0-1.39-.11l-1.53.87a1.6,1.6,0,0,0-.62,1.44v15.33a4.65,4.65,0,0,0,2,3.68,1.36,1.36,0,0,0,1.34.14c.28-.15,1.3-.74,1.57-.9a1.58,1.58,0,0,0,.63-1.44Z" style="opacity: 0.4; transform-origin: 100.44px 214.925px;" class="animable" id="el3ggkiz3qssm"></path></g><path d="M101.7,208.83v15.33c0,1.38-.91,2-2,1.33a4.65,4.65,0,0,1-2-3.68V206.48c0-1.38.91-2,2-1.33A4.66,4.66,0,0,1,101.7,208.83Z" style="fill: #BA68C8; transform-origin: 99.7px 215.32px;" id="elm3a1ngobyq" class="animable"></path><g id="elptbp17b0cf"><path d="M241.94,52.47c-.26-4-3.26-5.52-6.9-3.42l-123.5,71.3a11.7,11.7,0,0,0-2.88,2.51l-11.18-6.34a12.41,12.41,0,0,1,4.15-4.5L222.85,42c3.83-2.21,9.66-2.42,13-.48S241.72,48.19,241.94,52.47Z" style="fill: rgb(255, 255, 255); opacity: 0.4; transform-origin: 169.71px 81.5265px;" class="animable" id="el7eb8lziykw8"></path></g></g><path d="M122.12,363.63a.12.12,0,0,1-.1,0,.07.07,0,0,1,0-.07v-.51l-1.57.91s-.07,0-.1,0a.07.07,0,0,1,0-.07v-.53a.47.47,0,0,1,.07-.25l1.49-2.75.08-.12a.52.52,0,0,1,.11-.07l.75-.44a.13.13,0,0,1,.1,0,.1.1,0,0,1,0,.08v1.92l.43-.25a.1.1,0,0,1,.09,0,.08.08,0,0,1,0,.08v.53a.19.19,0,0,1,0,.11.3.3,0,0,1-.09.1l-.43.25V363a.3.3,0,0,1,0,.11.24.24,0,0,1-.1.1Zm-.11-1.38v-.92l-.73,1.34Z" style="fill: rgb(255, 255, 255); transform-origin: 121.911px 361.84px;" id="el5yum1xgzy1b" class="animable"></path><path d="M125.08,360a.19.19,0,0,1,0,.12.26.26,0,0,1-.09.09l-.66.38a.11.11,0,0,1-.09,0,.07.07,0,0,1,0-.07v-.66a.19.19,0,0,1,0-.12.26.26,0,0,1,.09-.09l.66-.38a.11.11,0,0,1,.09,0,.08.08,0,0,1,0,.08Zm0,1.75a.19.19,0,0,1,0,.12.26.26,0,0,1-.09.09l-.66.38a.11.11,0,0,1-.09,0,.07.07,0,0,1,0-.07v-.66a.19.19,0,0,1,0-.12.26.26,0,0,1,.09-.09l.66-.38a.11.11,0,0,1,.09,0,.08.08,0,0,1,0,.08Z" style="fill: rgb(255, 255, 255); transform-origin: 124.661px 360.805px;" id="el7adysaw8hah" class="animable"></path><path d="M127.61,360.46a.12.12,0,0,1-.1,0s0,0,0-.07v-.51l-1.57.91a.13.13,0,0,1-.1,0,.08.08,0,0,1,0-.08v-.53a.47.47,0,0,1,.07-.25l1.49-2.75.08-.12a.52.52,0,0,1,.11-.07l.75-.44a.12.12,0,0,1,.1,0,.07.07,0,0,1,0,.07v1.92l.43-.25a.11.11,0,0,1,.09,0,.08.08,0,0,1,0,.08v.53a.19.19,0,0,1,0,.11.22.22,0,0,1-.09.1l-.43.25v.51a.3.3,0,0,1,0,.11.24.24,0,0,1-.1.1Zm-.11-1.38v-.92l-.73,1.34Z" style="fill: rgb(255, 255, 255); transform-origin: 127.4px 358.67px;" id="elk7a9nkmw3jj" class="animable"></path><path d="M129.92,359l0-.07,1.08-3.14-1.49.86s-.07,0-.1,0,0,0,0-.07v-.53a.24.24,0,0,1,0-.12.28.28,0,0,1,.1-.09l2.39-1.38a.08.08,0,0,1,.09,0s0,0,0,.07V355a1.11,1.11,0,0,1-.08.3l-1.08,3.15a.67.67,0,0,1-.06.12.2.2,0,0,1-.09.09l-.7.4a.09.09,0,0,1-.08,0S129.92,359,129.92,359Z" style="fill: rgb(255, 255, 255); transform-origin: 130.693px 356.758px;" id="elhxrcofc14jc" class="animable"></path><path d="M220.65,305.53a1.81,1.81,0,0,1-.11.6,3.07,3.07,0,0,1-.33.58,3.89,3.89,0,0,1-.48.52,3.72,3.72,0,0,1-.56.42,3.2,3.2,0,0,1-.57.24,1.16,1.16,0,0,1-.48,0,.53.53,0,0,1-.33-.21.75.75,0,0,1-.12-.45,1.06,1.06,0,0,1,0-.31,1.61,1.61,0,0,1,.09-.29l.12-.27.12-.26,1-1.84s0-.06.06-.09a.21.21,0,0,1,.09-.1l.8-.46s.05,0,.07,0a.09.09,0,0,1,0,.07.06.06,0,0,1,0,0s0,0,0,0l-.65,1.26a2.39,2.39,0,0,1,.5-.16.92.92,0,0,1,.41,0,.46.46,0,0,1,.27.22A.73.73,0,0,1,220.65,305.53Zm-2.05,1.19a.23.23,0,0,0,.05.17.19.19,0,0,0,.12.07.65.65,0,0,0,.19,0l.21-.09.2-.15a1.57,1.57,0,0,0,.18-.19,1,1,0,0,0,.13-.22.63.63,0,0,0,0-.22.26.26,0,0,0,0-.17.21.21,0,0,0-.13-.07.4.4,0,0,0-.18,0,.72.72,0,0,0-.2.09l-.21.15-.19.19a.94.94,0,0,0-.12.22A.44.44,0,0,0,218.6,306.72Z" style="fill: rgb(255, 255, 255); transform-origin: 219.161px 305.763px;" id="el8pn8tq0fx8" class="animable"></path><path d="M222.25,303.93a.19.19,0,0,1,0,.12.28.28,0,0,1-.1.09l-.65.38a.13.13,0,0,1-.1,0,.08.08,0,0,1,0-.07v-.66a.26.26,0,0,1,.14-.21l.65-.38a.13.13,0,0,1,.1,0,.08.08,0,0,1,0,.08Zm0,1.75a.19.19,0,0,1,0,.12.28.28,0,0,1-.1.09l-.65.38a.13.13,0,0,1-.1,0,.08.08,0,0,1,0-.07v-.66a.26.26,0,0,1,.14-.21l.65-.38a.13.13,0,0,1,.1,0,.08.08,0,0,1,0,.08Z" style="fill: rgb(255, 255, 255); transform-origin: 221.846px 304.735px;" id="ellnrqzd1d1y" class="animable"></path><path d="M225.62,300.37a.13.13,0,0,1,.1,0,.07.07,0,0,1,0,.07V301a.19.19,0,0,1,0,.12.67.67,0,0,1-.06.12l-.6,1a.87.87,0,0,1,.63,0q.24.09.24.48a1.69,1.69,0,0,1-.39,1.08,3.59,3.59,0,0,1-1.09.91,2.63,2.63,0,0,1-.63.29,1.15,1.15,0,0,1-.47,0,.45.45,0,0,1-.29-.15.44.44,0,0,1-.11-.3.16.16,0,0,1,0-.09.2.2,0,0,1,.08-.08l.63-.36a.2.2,0,0,1,.16-.05l.12,0h.18a.86.86,0,0,0,.3-.13,1.42,1.42,0,0,0,.4-.31.49.49,0,0,0,.16-.34c0-.12,0-.17-.16-.17a1.12,1.12,0,0,0-.4.15l-.41.24a.13.13,0,0,1-.1,0,.08.08,0,0,1,0-.07v-.43a.28.28,0,0,1,0-.12.63.63,0,0,1,.07-.12l.53-.85-1.31.76a.1.1,0,0,1-.09,0s0,0,0-.07V302a.19.19,0,0,1,0-.12l.09-.09Z" style="fill: rgb(255, 255, 255); transform-origin: 224.437px 302.692px;" id="elmt6dcbhdyhd" class="animable"></path><path d="M228.12,298.87a2.13,2.13,0,0,1,.65-.26.73.73,0,0,1,.45,0,.51.51,0,0,1,.26.28,1.25,1.25,0,0,1,.1.46c0,.14,0,.28,0,.44s0,.31,0,.45a2.44,2.44,0,0,1-.1.57,2.36,2.36,0,0,1-.26.59,2.86,2.86,0,0,1-.45.55,3,3,0,0,1-.65.48,1.92,1.92,0,0,1-.64.27.73.73,0,0,1-.45,0,.51.51,0,0,1-.26-.28,1.24,1.24,0,0,1-.11-.46c0-.13,0-.27,0-.43s0-.31,0-.46a2.39,2.39,0,0,1,.11-.57,2.36,2.36,0,0,1,.26-.59,2.86,2.86,0,0,1,.45-.55A3.27,3.27,0,0,1,228.12,298.87Zm.54,1.92q0-.45,0-.84a1.12,1.12,0,0,0,0-.21.28.28,0,0,0-.09-.14.26.26,0,0,0-.16,0,.69.69,0,0,0-.25.09,1.26,1.26,0,0,0-.25.19,1.12,1.12,0,0,0-.16.22,1.57,1.57,0,0,0-.09.23,1.07,1.07,0,0,0,0,.25,5.89,5.89,0,0,0,0,.84.62.62,0,0,0,0,.21.22.22,0,0,0,.09.13.21.21,0,0,0,.16,0,.54.54,0,0,0,.25-.1,1,1,0,0,0,.25-.18,1.09,1.09,0,0,0,.17-.22,1.17,1.17,0,0,0,.09-.24A1,1,0,0,0,228.66,300.79Z" style="fill: rgb(255, 255, 255); transform-origin: 228.12px 300.655px;" id="el7gidhzio1xu" class="animable"></path><path d="M172.83,307.33V315a1.2,1.2,0,0,1-.56,1l-1.48.86c-.31.18-.55,0-.55-.32v-7.7a1.22,1.22,0,0,1,.55-1l1.49-.86C172.58,306.84,172.83,307,172.83,307.33Z" style="fill: rgb(255, 255, 255); transform-origin: 171.535px 311.93px;" id="el4m47rf9nvo9" class="animable"></path><path d="M178,304.34V312a1.25,1.25,0,0,1-.55,1l-1.49.86c-.3.17-.55,0-.55-.32v-7.71a1.21,1.21,0,0,1,.55-.95l1.49-.86C177.76,303.84,178,304,178,304.34Z" style="fill: rgb(255, 255, 255); transform-origin: 176.705px 308.936px;" id="ele9ykcvw4mli" class="animable"></path><path d="M198.44,292.46v7.71a1.22,1.22,0,0,1-.55,1l-1.48.85c-.31.18-.56,0-.56-.32V294a1.23,1.23,0,0,1,.56-1l1.48-.86C198.19,292,198.44,292.11,198.44,292.46Z" style="fill: rgb(255, 255, 255); transform-origin: 197.145px 297.086px;" id="eln3oo2nng8uh" class="animable"></path><path d="M199.64,291.84v7.55c0,.56.3.67.67.24l7-8c.37-.43.21-.77-.36-.77h-6.26A1,1,0,0,0,199.64,291.84Z" style="fill: rgb(255, 255, 255); transform-origin: 203.575px 295.376px;" id="elfqjg9ibjeu" class="animable"></path><path d="M153.16,318.6v7.7a1.22,1.22,0,0,1-.55,1l-1.48.86c-.31.17-.55,0-.55-.32v-7.7a1.21,1.21,0,0,1,.55-1l1.48-.86C152.91,318.1,153.16,318.25,153.16,318.6Z" style="fill: rgb(255, 255, 255); transform-origin: 151.87px 323.215px;" id="elvpfpawweccs" class="animable"></path><path d="M149.59,328.32v-7.86c0-.6-.33-.72-.73-.27l-7.44,8.41c-.4.45-.24.82.37.82h6.7A1.09,1.09,0,0,0,149.59,328.32Z" style="fill: rgb(255, 255, 255); transform-origin: 145.395px 324.669px;" id="eltsjwgc4hm4" class="animable"></path><path d="M135.36,299.78c0,.12,0,.29,0,.5v1.3c0,.2,0,.37,0,.48a1.59,1.59,0,0,0,.13.52.56.56,0,0,0,.29.33.8.8,0,0,0,.52,0,2.37,2.37,0,0,0,.77-.31,4,4,0,0,0,.76-.55,4,4,0,0,0,.49-.55,2.25,2.25,0,0,0,.29-.51c.07-.17.12-.32.16-.45a1.22,1.22,0,0,1,.15-.39.85.85,0,0,1,.31-.27l1.78-1a.24.24,0,0,1,.21,0,.16.16,0,0,1,.09.16,4.14,4.14,0,0,1-.34,1.5,7.42,7.42,0,0,1-.9,1.58,10.16,10.16,0,0,1-1.33,1.48,10,10,0,0,1-1.67,1.23,6,6,0,0,1-1.74.71,2.47,2.47,0,0,1-1.31,0,1.45,1.45,0,0,1-.83-.69,2.65,2.65,0,0,1-.34-1.22c0-.36,0-.76,0-1.18s0-.84,0-1.24a5.5,5.5,0,0,1,.33-1.61,8,8,0,0,1,.83-1.65,9.37,9.37,0,0,1,1.31-1.55,9.14,9.14,0,0,1,1.75-1.3,6,6,0,0,1,1.67-.7,3.06,3.06,0,0,1,1.33-.06,1.49,1.49,0,0,1,.9.54,1.81,1.81,0,0,1,.34,1.11.48.48,0,0,1-.09.26.7.7,0,0,1-.21.21l-1.78,1c-.15.09-.26.12-.31.09a.35.35,0,0,1-.15-.22,1.22,1.22,0,0,0-.16-.26.46.46,0,0,0-.29-.18,1.19,1.19,0,0,0-.49,0,2.67,2.67,0,0,0-.76.33,4.4,4.4,0,0,0-.77.57,3.45,3.45,0,0,0-.52.65,2.78,2.78,0,0,0-.29.67A3.3,3.3,0,0,0,135.36,299.78Z" style="fill: rgb(255, 255, 255); transform-origin: 137.08px 299.961px;" id="elsw8p5f7ibf" class="animable"></path><path d="M143.07,295.26a6.14,6.14,0,0,1,.33-1.62,7.51,7.51,0,0,1,.83-1.65,9.66,9.66,0,0,1,1.3-1.54,9.2,9.2,0,0,1,1.78-1.31,6.17,6.17,0,0,1,1.76-.73,2.58,2.58,0,0,1,1.31,0,1.56,1.56,0,0,1,.83.69,2.87,2.87,0,0,1,.33,1.24c0,.38,0,.78,0,1.21s0,.83,0,1.21a6.14,6.14,0,0,1-.33,1.62,7.51,7.51,0,0,1-.83,1.65,8.5,8.5,0,0,1-1.31,1.54,9.37,9.37,0,0,1-1.76,1.31,6.15,6.15,0,0,1-1.78.74,2.43,2.43,0,0,1-1.3,0,1.56,1.56,0,0,1-.83-.69,2.87,2.87,0,0,1-.33-1.24c0-.36,0-.76,0-1.18S143.05,295.66,143.07,295.26Zm6-1.09c0-.17,0-.35,0-.56s0-.41,0-.62,0-.4,0-.59,0-.36,0-.51a1.52,1.52,0,0,0-.14-.54.66.66,0,0,0-.33-.31.88.88,0,0,0-.52,0,2.45,2.45,0,0,0-.73.3,3.53,3.53,0,0,0-.74.54,3.75,3.75,0,0,0-.52.64,3.27,3.27,0,0,0-.33.68,3.57,3.57,0,0,0-.14.71,4.39,4.39,0,0,0,0,.54c0,.2,0,.4,0,.61s0,.41,0,.61a4.05,4.05,0,0,0,0,.52,1,1,0,0,0,.47.86c.28.13.69,0,1.26-.28a3.32,3.32,0,0,0,1.72-2.57Z" style="fill: rgb(255, 255, 255); transform-origin: 147.301px 294.017px;" id="elmjr6bbev0z9" class="animable"></path><path d="M153.49,289.24a6.14,6.14,0,0,1,.33-1.62,7.67,7.67,0,0,1,.83-1.64,8.86,8.86,0,0,1,1.31-1.54,9.27,9.27,0,0,1,1.77-1.32,5.84,5.84,0,0,1,1.76-.72,2.38,2.38,0,0,1,1.31,0,1.48,1.48,0,0,1,.83.69,2.78,2.78,0,0,1,.33,1.23c0,.38,0,.79,0,1.21s0,.83,0,1.21a6.14,6.14,0,0,1-.33,1.62,7.58,7.58,0,0,1-.83,1.66,8.86,8.86,0,0,1-1.31,1.54,9.33,9.33,0,0,1-1.76,1.3,6.22,6.22,0,0,1-1.77.74,2.48,2.48,0,0,1-1.31,0,1.62,1.62,0,0,1-.83-.7,2.87,2.87,0,0,1-.33-1.24c0-.36,0-.75,0-1.18S153.48,289.64,153.49,289.24Zm6-1.09c0-.17,0-.35,0-.56s0-.41,0-.61,0-.41,0-.6,0-.36,0-.51a1.64,1.64,0,0,0-.14-.54A.71.71,0,0,0,159,285a.88.88,0,0,0-.52,0,2.45,2.45,0,0,0-.73.3,4.31,4.31,0,0,0-.74.55,3.34,3.34,0,0,0-.52.63,2.69,2.69,0,0,0-.32.69,2.92,2.92,0,0,0-.15.7,4.63,4.63,0,0,0,0,.54c0,.2,0,.4,0,.61s0,.41,0,.61a3.94,3.94,0,0,0,0,.52,1,1,0,0,0,.47.86c.28.14.7.05,1.26-.28a3.32,3.32,0,0,0,1.72-2.57Z" style="fill: rgb(255, 255, 255); transform-origin: 157.723px 287.998px;" id="eldd92aqyrmoo" class="animable"></path><path d="M170.87,283a.32.32,0,0,1,.26,0,.2.2,0,0,1,.11.2v1.44a.65.65,0,0,1-.11.32.81.81,0,0,1-.26.26l-6.28,3.62a.28.28,0,0,1-.26,0c-.07,0-.1-.09-.1-.19v-8.77a.62.62,0,0,1,.1-.32.92.92,0,0,1,.26-.26l1.78-1a.29.29,0,0,1,.26,0,.18.18,0,0,1,.11.19v7Z" style="fill: rgb(255, 255, 255); transform-origin: 167.736px 283.571px;" id="elu83vclxmuqr" class="animable"></path><path d="M179.84,270.35a6,6,0,0,1,1.6-.67,3.25,3.25,0,0,1,1.25-.08,1.47,1.47,0,0,1,.83.39,1.06,1.06,0,0,1,.31.73.56.56,0,0,1-.08.26.68.68,0,0,1-.2.21l-1.78,1a.79.79,0,0,1-.3.12.65.65,0,0,1-.24,0l-.13-.06a.7.7,0,0,0-.25-.06,1.76,1.76,0,0,0-.41.06,3.55,3.55,0,0,0-.6.27c-.17.1-.33.21-.49.32s-.3.24-.42.35a2.14,2.14,0,0,0-.3.39.77.77,0,0,0-.12.4.28.28,0,0,0,.13.27.79.79,0,0,0,.44,0,6.32,6.32,0,0,0,.81-.24l1.24-.47a7.42,7.42,0,0,1,1.31-.37,1.88,1.88,0,0,1,.93,0,1,1,0,0,1,.55.49,2.32,2.32,0,0,1,.18,1,3.5,3.5,0,0,1-.31,1.42,6.23,6.23,0,0,1-.87,1.43,9.45,9.45,0,0,1-1.33,1.36,11.4,11.4,0,0,1-1.68,1.17,6.53,6.53,0,0,1-1.68.73,3.25,3.25,0,0,1-1.31.11,1.45,1.45,0,0,1-.86-.4,1.2,1.2,0,0,1-.33-.83.48.48,0,0,1,.09-.26.58.58,0,0,1,.2-.21l1.78-1a.76.76,0,0,1,.29-.13.53.53,0,0,1,.22,0l.16.08a1,1,0,0,0,.3.09,1.36,1.36,0,0,0,.46-.05,2.48,2.48,0,0,0,.68-.3,6.62,6.62,0,0,0,1.2-.85,1.21,1.21,0,0,0,.49-.84.22.22,0,0,0-.18-.24,1.39,1.39,0,0,0-.53.06,7.82,7.82,0,0,0-.9.3l-1.3.47a2.72,2.72,0,0,1-2,.18c-.43-.21-.65-.71-.65-1.49a3.5,3.5,0,0,1,.27-1.27,6.13,6.13,0,0,1,.77-1.37,7.94,7.94,0,0,1,1.21-1.35A9.83,9.83,0,0,1,179.84,270.35Z" style="fill: rgb(255, 255, 255); transform-origin: 179.916px 275.238px;" id="elzi46y8idlbk" class="animable"></path><path d="M185.83,270.57a6.14,6.14,0,0,1,.33-1.62,7.23,7.23,0,0,1,.83-1.64,9.24,9.24,0,0,1,3.07-2.86,5.88,5.88,0,0,1,1.77-.72,2.38,2.38,0,0,1,1.31,0,1.46,1.46,0,0,1,.82.69,2.66,2.66,0,0,1,.34,1.24c0,.37,0,.78,0,1.2s0,.83,0,1.21a5.73,5.73,0,0,1-.34,1.62,7.53,7.53,0,0,1-.82,1.66,9.09,9.09,0,0,1-3.08,2.84,5.94,5.94,0,0,1-1.77.74,2.44,2.44,0,0,1-1.3,0,1.54,1.54,0,0,1-.83-.7,2.87,2.87,0,0,1-.33-1.24c0-.36,0-.75,0-1.18S185.81,271,185.83,270.57Zm6-1.09c0-.16,0-.35,0-.56s0-.41,0-.61,0-.41,0-.6,0-.36,0-.51a1.43,1.43,0,0,0-.15-.54.64.64,0,0,0-.32-.31,1,1,0,0,0-.52,0,2.49,2.49,0,0,0-.74.3,4.22,4.22,0,0,0-.73.55,3.34,3.34,0,0,0-.52.63,3.12,3.12,0,0,0-.33.69,2.9,2.9,0,0,0-.14.7,4.63,4.63,0,0,0,0,.54c0,.2,0,.41,0,.61s0,.41,0,.61a3.94,3.94,0,0,0,0,.52,1,1,0,0,0,.47.86c.27.14.69.05,1.25-.28a3.3,3.3,0,0,0,1.25-1.17A3.39,3.39,0,0,0,191.79,269.48Z" style="fill: rgb(255, 255, 255); transform-origin: 190.061px 269.328px;" id="elfu26jl5690r" class="animable"></path><path d="M202.74,266.77a.5.5,0,0,1-.38.09.38.38,0,0,1-.18-.08l-3.11-2.85v4.59a.54.54,0,0,1-.11.32.78.78,0,0,1-.25.26l-1.78,1a.29.29,0,0,1-.26,0,.18.18,0,0,1-.11-.19V261.2a.65.65,0,0,1,.11-.32.81.81,0,0,1,.26-.26l1.41-.81a.48.48,0,0,1,.37-.09.38.38,0,0,1,.19.08l3.1,2.85v-4.59a.62.62,0,0,1,.11-.32.81.81,0,0,1,.26-.26l1.78-1a.28.28,0,0,1,.26,0c.07,0,.1.09.1.19v8.77a.62.62,0,0,1-.1.32.92.92,0,0,1-.26.26Z" style="fill: rgb(255, 255, 255); transform-origin: 200.534px 263.289px;" id="elv36t7q96ew" class="animable"></path><path d="M211,254.54a3.77,3.77,0,0,0-.78.58,3.67,3.67,0,0,0-.51.64,3,3,0,0,0-.29.67,4.16,4.16,0,0,0-.13.67c0,.13,0,.3,0,.51v.65c0,.22,0,.44,0,.65s0,.36,0,.48a1.65,1.65,0,0,0,.13.52.63.63,0,0,0,.29.33.87.87,0,0,0,.52.05A2.69,2.69,0,0,0,211,260a4.88,4.88,0,0,0,.66-.46,3.59,3.59,0,0,0,.54-.57,2.65,2.65,0,0,0,.37-.68,2.19,2.19,0,0,0,.14-.77l-1.14.66a.29.29,0,0,1-.26,0,.18.18,0,0,1-.11-.19v-1.44a.62.62,0,0,1,.11-.32.72.72,0,0,1,.26-.26l3.28-1.9a.32.32,0,0,1,.26,0,.2.2,0,0,1,.11.2V256a4.92,4.92,0,0,1-.33,1.74,7.41,7.41,0,0,1-.89,1.69,9.54,9.54,0,0,1-1.34,1.52,9.79,9.79,0,0,1-1.66,1.21,5.79,5.79,0,0,1-1.75.72,2.48,2.48,0,0,1-1.31,0,1.53,1.53,0,0,1-.83-.69,2.61,2.61,0,0,1-.33-1.23c0-.36,0-.75,0-1.18s0-.83,0-1.23a5.11,5.11,0,0,1,.32-1.61,7.56,7.56,0,0,1,.84-1.65,8.17,8.17,0,0,1,1.31-1.55,8.88,8.88,0,0,1,1.75-1.31,6.17,6.17,0,0,1,1.71-.71,3,3,0,0,1,1.29,0,1.53,1.53,0,0,1,.82.45,1.3,1.3,0,0,1,.33.79.39.39,0,0,1-.08.25.77.77,0,0,1-.22.22l-1.8,1c-.14.08-.25.1-.32.06l-.23-.11a.93.93,0,0,0-.51-.15A2.12,2.12,0,0,0,211,254.54Z" style="fill: rgb(255, 255, 255); transform-origin: 211.001px 257.309px;" id="elfniwo88ue5j" class="animable"></path><path d="M155.06,302.27a1,1,0,0,0,0,.19V303a.87.87,0,0,0,0,.18.65.65,0,0,0,0,.21.28.28,0,0,0,.12.12.37.37,0,0,0,.19,0,1.28,1.28,0,0,0,.29-.12,1.45,1.45,0,0,0,.29-.21,1.2,1.2,0,0,0,.19-.21l.11-.19.06-.17a.53.53,0,0,1,.05-.15.32.32,0,0,1,.12-.1l.67-.39a.12.12,0,0,1,.08,0,.07.07,0,0,1,0,.06,1.79,1.79,0,0,1-.13.57,2.72,2.72,0,0,1-.34.59,3.86,3.86,0,0,1-.51.57,3.64,3.64,0,0,1-.63.46,2.19,2.19,0,0,1-.66.27,1,1,0,0,1-.49,0,.6.6,0,0,1-.32-.27,1,1,0,0,1-.12-.46c0-.14,0-.29,0-.45s0-.31,0-.47a1.69,1.69,0,0,1,.12-.6,2.88,2.88,0,0,1,.32-.63A3.74,3.74,0,0,1,155,301a4,4,0,0,1,.66-.49,2.28,2.28,0,0,1,.63-.26,1.12,1.12,0,0,1,.51,0,.54.54,0,0,1,.34.2.77.77,0,0,1,.13.42.26.26,0,0,1,0,.1l-.08.08-.67.39q-.09,0-.12,0a.12.12,0,0,1-.05-.08l-.06-.1a.19.19,0,0,0-.11-.07.42.42,0,0,0-.19,0,1.19,1.19,0,0,0-.29.12,1.69,1.69,0,0,0-.29.22,1.1,1.1,0,0,0-.19.25.82.82,0,0,0-.12.25A1.09,1.09,0,0,0,155.06,302.27Z" style="fill: rgb(255, 255, 255); transform-origin: 155.652px 302.371px;" id="eld5c42qup8ps" class="animable"></path><path d="M158,300.56a2.3,2.3,0,0,1,.13-.61,3.06,3.06,0,0,1,.31-.63,3.77,3.77,0,0,1,.5-.58,3.13,3.13,0,0,1,.67-.49,2.19,2.19,0,0,1,.66-.28,1,1,0,0,1,.5,0,.61.61,0,0,1,.31.26,1,1,0,0,1,.13.47c0,.14,0,.3,0,.46s0,.31,0,.46a2,2,0,0,1-.13.61,3.06,3.06,0,0,1-.31.63,3.6,3.6,0,0,1-1.16,1.07,2.34,2.34,0,0,1-.67.28.92.92,0,0,1-.5,0,.58.58,0,0,1-.31-.27,1,1,0,0,1-.13-.46c0-.14,0-.29,0-.45S158,300.71,158,300.56Zm2.26-.41c0-.06,0-.13,0-.21v-.46c0-.07,0-.14,0-.19a.93.93,0,0,0,0-.21.37.37,0,0,0-.13-.12.43.43,0,0,0-.2,0,1,1,0,0,0-.27.12,1.55,1.55,0,0,0-.28.2,1.41,1.41,0,0,0-.2.24,1.51,1.51,0,0,0-.12.26,1.31,1.31,0,0,0-.06.27c0,.06,0,.13,0,.2v.46c0,.08,0,.14,0,.2a.4.4,0,0,0,.18.33c.11,0,.26,0,.48-.11a1.25,1.25,0,0,0,.47-.44A1.34,1.34,0,0,0,160.23,300.15Z" style="fill: rgb(255, 255, 255); transform-origin: 159.605px 300.091px;" id="elqqepaeu4jhg" class="animable"></path><path d="M161.92,298.28a2.35,2.35,0,0,1,.12-.61,2.81,2.81,0,0,1,.32-.62,3.28,3.28,0,0,1,.49-.58,3.08,3.08,0,0,1,.67-.5,2.14,2.14,0,0,1,.67-.28,1,1,0,0,1,.49,0,.6.6,0,0,1,.32.27,1,1,0,0,1,.12.47c0,.14,0,.29,0,.45s0,.31,0,.46a2.27,2.27,0,0,1-.12.61,2.88,2.88,0,0,1-.32.63,3.28,3.28,0,0,1-.49.58,3.77,3.77,0,0,1-.67.5,2.18,2.18,0,0,1-.67.27.8.8,0,0,1-.49,0,.59.59,0,0,1-.32-.26,1.08,1.08,0,0,1-.12-.47c0-.14,0-.29,0-.45S161.91,298.44,161.92,298.28Zm2.25-.41a1.34,1.34,0,0,0,0-.21,1.77,1.77,0,0,0,0-.23,1.69,1.69,0,0,0,0-.23,1.15,1.15,0,0,0,0-.19.46.46,0,0,0,0-.21.25.25,0,0,0-.12-.11.33.33,0,0,0-.2,0,.84.84,0,0,0-.28.11,1.21,1.21,0,0,0-.28.21.88.88,0,0,0-.19.24.91.91,0,0,0-.13.26.75.75,0,0,0,0,.26,1.34,1.34,0,0,0,0,.21,1.69,1.69,0,0,0,0,.23,1.77,1.77,0,0,0,0,.23,1.09,1.09,0,0,0,0,.19.35.35,0,0,0,.18.33c.1.05.26,0,.47-.11a1.25,1.25,0,0,0,.47-.44A1.08,1.08,0,0,0,164.17,297.87Z" style="fill: rgb(255, 255, 255); transform-origin: 163.518px 297.814px;" id="elhzvfjbrp7wm" class="animable"></path><path d="M168.5,295.92a.11.11,0,0,1,.09,0,.09.09,0,0,1,0,.08v.54a.21.21,0,0,1,0,.12.22.22,0,0,1-.09.1l-2.38,1.37a.1.1,0,0,1-.1,0,.07.07,0,0,1,0-.07v-3.32a.19.19,0,0,1,0-.12.24.24,0,0,1,.1-.1l.67-.39s.07,0,.1,0,0,0,0,.07v2.63Z" style="fill: rgb(255, 255, 255); transform-origin: 167.305px 296.137px;" id="el00gw1cd60n91i" class="animable"></path><path d="M172.33,290.94c.07,0,.12-.06.15,0s.07,0,.08.07l1.12,2.59,0,.06a.17.17,0,0,1,0,.1l-.08.08-.65.38a.21.21,0,0,1-.15,0s0,0,0-.06l-.14-.34-1.37.79-.14.51a.41.41,0,0,1-.06.11.44.44,0,0,1-.14.13l-.65.38a.12.12,0,0,1-.08,0,.06.06,0,0,1,0-.06.18.18,0,0,1,0-.09l1.12-3.88a.43.43,0,0,1,.07-.16.36.36,0,0,1,.16-.14Zm-.83,2.72.83-.48-.42-1Z" style="fill: rgb(255, 255, 255); transform-origin: 171.95px 293.33px;" id="elffsc82gwiqt" class="animable"></path><path d="M176.89,291.08a.1.1,0,0,1,.1,0,.08.08,0,0,1,0,.07v.55a.28.28,0,0,1,0,.12.47.47,0,0,1-.1.1l-2.38,1.37s-.07,0-.1,0a.07.07,0,0,1,0-.07v-3.32a.34.34,0,0,1,0-.12.28.28,0,0,1,.1-.09l.67-.39a.13.13,0,0,1,.1,0s0,0,0,.08V292Z" style="fill: rgb(255, 255, 255); transform-origin: 175.699px 291.29px;" id="elcjuz4zb2lnp" class="animable"></path><path d="M179.23,289.64l-.07,0-.48-.58v1.71a.41.41,0,0,1,0,.12.41.41,0,0,1-.1.09l-.68.39a.11.11,0,0,1-.09,0s0,0,0-.08V288a.19.19,0,0,1,0-.12.22.22,0,0,1,.09-.1l.6-.35q.1-.06.15,0s.06,0,.07.05l.83.94.84-1.91a.62.62,0,0,1,.06-.12.56.56,0,0,1,.16-.14l.59-.35a.12.12,0,0,1,.1,0s0,0,0,.07v3.32a.19.19,0,0,1,0,.12.32.32,0,0,1-.1.1l-.67.39s-.07,0-.1,0,0,0,0-.07v-1.7l-.48,1.13-.07.12a.32.32,0,0,1-.12.11l-.33.19A.15.15,0,0,1,179.23,289.64Z" style="fill: rgb(255, 255, 255); transform-origin: 179.555px 288.634px;" id="elrm0kkhw11be" class="animable"></path><path d="M182.41,288.71a.1.1,0,0,1-.09,0s0,0,0-.07v-3.32a.19.19,0,0,1,0-.12.29.29,0,0,1,.09-.1l1.66-.95a1.55,1.55,0,0,1,.58-.24.67.67,0,0,1,.38,0,.45.45,0,0,1,.2.23,1,1,0,0,1,.06.35,1.27,1.27,0,0,1,0,.28c0,.08,0,.16-.08.23a1.65,1.65,0,0,1-.1.19l-.08.12a.32.32,0,0,1,.28.16.71.71,0,0,1,.08.39,1.86,1.86,0,0,1-.06.45,2.07,2.07,0,0,1-.2.47,2.57,2.57,0,0,1-.37.46,2.74,2.74,0,0,1-.55.42Zm1.93-3.62a.18.18,0,0,0-.08-.17.3.3,0,0,0-.24.06l-.79.46V286l.79-.46a.7.7,0,0,0,.24-.21A.5.5,0,0,0,184.34,285.09Zm-1.11,2.35.84-.49a.62.62,0,0,0,.25-.23.54.54,0,0,0,.09-.28.17.17,0,0,0-.09-.17.33.33,0,0,0-.25.06l-.84.48Z" style="fill: rgb(255, 255, 255); transform-origin: 183.851px 286.302px;" id="eldma193dn3z" class="animable"></path><path d="M189.14,281.23a.11.11,0,0,1,.09,0,.09.09,0,0,1,.05.08v2a2.09,2.09,0,0,1-.12.69,2.26,2.26,0,0,1-.32.64,3.7,3.7,0,0,1-.49.57,4.61,4.61,0,0,1-.63.46,3,3,0,0,1-.64.27,1,1,0,0,1-.5,0,.56.56,0,0,1-.31-.28,1.11,1.11,0,0,1-.12-.56v-2.05a.28.28,0,0,1,0-.12.32.32,0,0,1,.1-.1l.67-.39a.12.12,0,0,1,.1,0,.07.07,0,0,1,0,.07v2c0,.21.05.34.15.4s.26,0,.47-.09a1.27,1.27,0,0,0,.45-.44,1.17,1.17,0,0,0,.16-.57v-2a.19.19,0,0,1,0-.12.22.22,0,0,1,.09-.1Z" style="fill: rgb(255, 255, 255); transform-origin: 187.712px 283.596px;" id="elkxsoa7il8f" class="animable"></path><path d="M191.72,282.43a.18.18,0,0,1-.07-.05l-.48-.57v1.71a.28.28,0,0,1,0,.12.26.26,0,0,1-.09.09l-.68.39a.11.11,0,0,1-.09,0s0,0,0-.08v-3.31a.24.24,0,0,1,0-.13.26.26,0,0,1,.09-.09l.6-.35q.11-.06.15,0l.07,0,.83.95.83-1.91a.54.54,0,0,0,.07-.12.56.56,0,0,1,.16-.14l.59-.35a.12.12,0,0,1,.1,0s0,0,0,.07V282a.19.19,0,0,1,0,.12.32.32,0,0,1-.1.1l-.67.39a.12.12,0,0,1-.1,0s0,0,0-.07v-1.7l-.48,1.12-.07.13a.32.32,0,0,1-.12.11l-.33.19A.15.15,0,0,1,191.72,282.43Z" style="fill: rgb(255, 255, 255); transform-origin: 192.055px 281.354px;" id="elrxp4waqbnp" class="animable"></path><g id="elqcmt0ymac18"><path d="M138.42,349.53l72.85-42.06c1.19-.69,2.16-.2,2.16,1.09a4.65,4.65,0,0,1-2.16,3.6l-72.85,42.06c-1.2.69-2.17.2-2.17-1.1A4.64,4.64,0,0,1,138.42,349.53Z" style="fill: rgb(255, 255, 255); opacity: 0.3; transform-origin: 174.84px 330.845px;" class="animable" id="elw1hhg0wue3"></path></g><path d="M138.42,349.53l54.7-31.59c1.2-.69,2.17-.2,2.17,1.1a4.64,4.64,0,0,1-2.17,3.59l-54.7,31.59c-1.2.69-2.17.2-2.17-1.1A4.64,4.64,0,0,1,138.42,349.53Z" style="fill: rgb(255, 255, 255); transform-origin: 165.77px 336.08px;" id="eloay23hjxk4" class="animable"></path><g id="freepik--Note--inject-38" class="animable" style="transform-origin: 169.655px 195.655px;"><path d="M208.71,121.07l-65.16,37.49v74.26a13.34,13.34,0,0,0-4.54,1.66c-7.51,4.33-13.6,14.88-13.6,23.56,0,4.65,1.77,7.8,4.55,9.07h0l4.79,2.31v0c2.44,1.32,5.77,1.09,9.45-1,7.51-4.34,13.6-14.89,13.6-23.56v-68l41.87-24.1v47.88a13.32,13.32,0,0,0-4.55,1.66c-7.51,4.34-13.6,14.88-13.6,23.56,0,4.65,1.76,7.79,4.54,9.06h0l4.66,2.25h0c2.46,1.4,5.84,1.19,9.58-1,7.51-4.34,13.6-14.88,13.6-23.55h0v-89Z" style="fill: #BA68C8; transform-origin: 169.655px 195.655px;" id="el68satmlsoy" class="animable"></path><g id="elac8annh40d"><path d="M208.71,121.07l-65.16,37.49v74.26a13.34,13.34,0,0,0-4.54,1.66c-7.51,4.33-13.6,14.88-13.6,23.56,0,4.65,1.77,7.8,4.55,9.07h0l4.79,2.31v0c2.44,1.32,5.77,1.09,9.45-1,7.51-4.34,13.6-14.89,13.6-23.56v-68l41.87-24.1v47.88a13.32,13.32,0,0,0-4.55,1.66c-7.51,4.34-13.6,14.88-13.6,23.56,0,4.65,1.76,7.79,4.54,9.06h0l4.66,2.25h0c2.46,1.4,5.84,1.19,9.58-1,7.51-4.34,13.6-14.88,13.6-23.55h0v-89Z" style="opacity: 0.15; transform-origin: 169.655px 195.655px;" class="animable" id="elarmgq0pcflk"></path></g><path d="M156.69,251.59l-8-16.28-5.14-2.49a13.34,13.34,0,0,0-4.54,1.66,26.48,26.48,0,0,0-8.2,7.93l24,13.86A32.61,32.61,0,0,0,156.69,251.59Z" style="fill: #BA68C8; transform-origin: 143.75px 244.545px;" id="elh5eghu1yhqi" class="animable"></path><g id="eliiev1zdch1"><path d="M156.69,251.59l-8-16.28-5.14-2.49a13.34,13.34,0,0,0-4.54,1.66,26.48,26.48,0,0,0-8.2,7.93l24,13.86A32.61,32.61,0,0,0,156.69,251.59Z" style="fill: rgb(255, 255, 255); opacity: 0.4; transform-origin: 143.75px 244.545px;" class="animable" id="el8r63066a03t"></path></g><path d="M212.76,219.34l-8-16.29-5.15-2.49a13.3,13.3,0,0,0-4.53,1.66,26.4,26.4,0,0,0-8.21,7.93l24,13.86A31.38,31.38,0,0,0,212.76,219.34Z" style="fill: #BA68C8; transform-origin: 199.815px 212.285px;" id="el8nokr1xv82b" class="animable"></path><g id="el6hbdyh6u9oh"><path d="M212.76,219.34l-8-16.29-5.15-2.49a13.3,13.3,0,0,0-4.53,1.66,26.4,26.4,0,0,0-8.21,7.93l24,13.86A31.38,31.38,0,0,0,212.76,219.34Z" style="fill: rgb(255, 255, 255); opacity: 0.4; transform-origin: 199.815px 212.285px;" class="animable" id="elcahrmurgaxd"></path></g><g id="elt5lbshw7b1a"><polygon points="213.85 123.56 208.71 121.07 143.55 158.56 148.69 161.05 213.85 123.56" style="fill: rgb(255, 255, 255); opacity: 0.6; transform-origin: 178.7px 141.06px;" class="animable" id="eleh8dwvqjvqn"></polygon></g><path d="M148.69,161.05v74.26a13.34,13.34,0,0,0-4.54,1.66c-7.51,4.33-13.6,14.88-13.6,23.56s6.1,12.18,13.61,7.85,13.6-14.89,13.6-23.56v-68l47-27.05h0v53.31a13.39,13.39,0,0,0-4.55,1.66c-7.51,4.34-13.6,14.88-13.6,23.56s6.1,12.19,13.61,7.85,13.6-14.88,13.6-23.55h0v-89Z" style="fill: #BA68C8; transform-origin: 172.185px 196.918px;" id="el044v0qmrzfuu" class="animable"></path></g></g></g><g id="freepik--Character--inject-38" class="animable" style="transform-origin: 355.906px 244.456px;"><g id="freepik--character--inject-38" class="animable" style="transform-origin: 355.906px 244.456px;"><path d="M414.9,246.59c3.07,7.61-6.23,16-20,19.41s-34.67.36-48.39-7.55-2.4-23.72,10.75-29.22S405.62,230.31,414.9,246.59Z" style="fill: #BA68C8; transform-origin: 377.879px 247.352px;" id="elhvgiwesapbd" class="animable"></path><g id="elmo2wnuqsjip"><path d="M414.9,246.59c3.07,7.61-6.23,16-20,19.41s-34.67.36-48.39-7.55-2.4-23.72,10.75-29.22S405.62,230.31,414.9,246.59Z" style="opacity: 0.15; transform-origin: 377.879px 247.352px;" class="animable" id="el41y1rnzc2tj"></path></g><path d="M394.59,254.22c3.92-35.71-1.3-41.83-13.36-62.87l-44.15,4,20.95,33s3.34,45.48,5.18,63.58c1.05,10.43,4.89,22.34,9.66,41.95,2.8,11.52,8,29.24,10,38.94.58,2.94,8.06,6.26,13.34-2.35.41-11.48.1-36.31,0-45-.21-20.53-6.91-34-6.91-34S392.39,274.25,394.59,254.22Z" style="fill: rgb(255, 168, 167); transform-origin: 366.748px 283.667px;" id="elxn3squdbpg" class="animable"></path><path d="M342.3,334.76c-.1-18.05-.82-22.26-1.56-27.51a68.93,68.93,0,0,0-5.45-19.39l28.91-57.09-27.12-34.38c-.44,2.09-32.15,82.37-28.11,97.28,1.88,6.93,12.54,40.6,21.09,66.66a49.53,49.53,0,0,1,2.06,4.72c.54,1.55,11.17-5.17,11.17-5.17,1.31-3.3-.36-5.7-.41-6.9C342.67,347.28,342.35,343.8,342.3,334.76Z" style="fill: rgb(255, 168, 167); transform-origin: 336.407px 280.836px;" id="eljpalqwwx6wb" class="animable"></path><path d="M335.4,201c-4,10.72-14.18,37.83-20.78,60.37,11,5.12,20.78,7,31.19,5.68l13.17-26c.48,6.27,1.09,14.19,1.73,22.16,1-.37,2-.77,3-1.19,12.13-5,22.75-10.19,31.31-12.26,2.66-28.19-1.17-36.51-10.1-52Z" style="fill: rgb(242, 143, 143); transform-origin: 355.235px 232.609px;" id="el19jl99ptl5c" class="animable"></path><path d="M333.85,200.25c-6.74,11.31-38,23.76-38,23.76s-1.08,15.08,13.34,22S333.85,200.25,333.85,200.25Z" style="fill: #BA68C8; transform-origin: 314.841px 223.443px;" id="elp3ftmj38nu" class="animable"></path><g id="elgtpqcmmip9u"><path d="M333.85,200.25c-6.74,11.31-38,23.76-38,23.76s-1.08,15.08,13.34,22S333.85,200.25,333.85,200.25Z" style="opacity: 0.15; transform-origin: 314.841px 223.443px;" class="animable" id="elumdbak4hzdp"></path></g><path d="M337.08,195.39c-9.42,15.08-22.3,21.25-38.34,45.85C304.3,252,325,262.72,343.28,262.06c20.44-.74,42.2-17.86,54.16-20.16,12.19-2.35,17.46,4.69,17.46,4.69s-9-21.16-32.12-53.27Z" style="fill: #BA68C8; transform-origin: 356.82px 227.704px;" id="el07fclx9xvvjg" class="animable"></path><path d="M401.05,379.51c1.33,2.74,2.32,10.84,2.32,10.84s-.65,3-4.72,5.8l-4.41-10.6Z" style="fill: rgb(38, 50, 56); transform-origin: 398.805px 387.83px;" id="elhbgoy1cnuuq" class="animable"></path><polygon points="398.65 396.15 388.1 395.06 383.83 386.83 396.11 390.03 398.65 396.15" id="eld8dkyngyzk8" class="animable" style="transform-origin: 391.24px 391.49px;"></polygon><path d="M382.87,372.89l-.5-2.06c-1.19.94-1.8,12.35-4.17,20.6C376,399,369.65,404.28,368,407.72c-2.27,4.61,4.91,8.35,14.21,4.14,4.61-2.09,11.27-6.78,12.55-10.47s.64-9.85,1.75-12.6,4.36-6.36,4.59-9.28a15.27,15.27,0,0,0-1.66-7.54c-1.31-2.32-1.8-4.87-3.08-4.82l-.06,2.13c-.36,1.47-2.31,3.4-7.18,4.74C386.76,374.65,384.41,374.79,382.87,372.89Z" style="fill: rgb(55, 71, 79); transform-origin: 384.344px 390.422px;" id="ell5emic01g5b" class="animable"></path><path d="M349.47,364c1.73,2.51,3.93,10.38,3.93,10.38s-.2,3.07-3.81,6.45L343.64,371Z" style="fill: rgb(38, 50, 56); transform-origin: 348.52px 372.415px;" id="el04pyuvzcv7ic" class="animable"></path><polygon points="349.59 380.87 338.98 381.37 333.52 373.88 346.15 375.19 349.59 380.87" id="elam3dw2w2w9t" class="animable" style="transform-origin: 341.555px 377.625px;"></polygon><path d="M330.06,360.33l-.64-1.93c-1.55.38-1,3.38-.93,4.3.14,2.65.35,5.29.44,7.94a49.34,49.34,0,0,1-.42,8.77c-.41,2.78-.48,5.67-1.64,8.27s-3.71,4.49-5.67,6.46a4,4,0,0,0-1.17,1.71c-.3,1.24.67,2.43,1.73,3.14a11,11,0,0,0,6.25,1.7,22.55,22.55,0,0,0,6.44-1.2,23.48,23.48,0,0,0,9.86-5.89c2.62-2.73,2.49-7.13,2.33-10.69-.13-2.89-1-6.14-.32-9s3.36-7,3.15-9.87a13.88,13.88,0,0,0-2.8-6.73c-1.64-2.1-3.07-4.9-3.79-4.33l.14,1.81c-.14,1.52.53,3.85-4.09,5.91C336.74,361.67,331.86,362,330.06,360.33Z" style="fill: rgb(55, 71, 79); transform-origin: 334.728px 376.801px;" id="eljzwro19gdg" class="animable"></path><path d="M360.19,153.68a72.2,72.2,0,0,0-2.75,7,9.34,9.34,0,0,1-4,5.44,25.52,25.52,0,0,1-5,3,18.78,18.78,0,0,1-6.17.46,30,30,0,0,1-11.77-2.77,25.94,25.94,0,0,1-9.43-7.29c-2.82-3.57-4.81-8.3-4.38-12.91.41-4.31,2.23-8.38,5-10.79a15.62,15.62,0,0,0-7.28,11.56c-1.68-7,.45-12.06,4.06-16.73s7.62-6.1,12.25-9.77c3.07-2.44,5-4.41,6-8s.77-7.38.77-10.94a25.37,25.37,0,0,1,10.85-20.71A25.05,25.05,0,0,1,359.78,77,90.53,90.53,0,0,1,377.5,77c4.78.58,9.84,2.06,13.6,5.06a13.16,13.16,0,0,1,5,10.37c-.23,5.86-2.87,10.77-7.14,14.8a17.23,17.23,0,0,1,6.09,7c1.41,3.2,2.12,5.87,1.32,9.41a13.53,13.53,0,0,1-4,7.15c.31-3.33,0-4.87-1.29-6.82a16.39,16.39,0,0,1-.05,5.62,20.29,20.29,0,0,1-2.05,5.78,17.31,17.31,0,0,1-6.29,6.85c-2.94,1.68-6.45,1.93-9.81,2.35s-6.9,1.14-9.35,3.48A15.63,15.63,0,0,0,360.19,153.68Z" style="fill: rgb(38, 50, 56); transform-origin: 355.266px 123.112px;" id="eliezkrj5akth" class="animable"></path><path d="M341.94,89.43a3.43,3.43,0,1,1-5.7-3.82Z" style="fill: rgb(38, 50, 56); transform-origin: 338.8px 88.2804px;" id="elsvw7lf3dfw" class="animable"></path><path d="M342.46,89.59a3.43,3.43,0,1,1-.46-6.85Z" style="fill: rgb(38, 50, 56); transform-origin: 340.629px 86.1689px;" id="elu6et5onx87n" class="animable"></path><path d="M350.15,131.53c-3.47-.61-6.85-1-11.35,1.45s-10.15,9.84-15.06,16.88-10,13-10,13-17.23-14.07-19.94-19c-1.42-2.57-.2-3.84-1.55-8.92-1.53-5.77,1.69-9.09-1.76-8.7-3.83.44-3.37,7-3.37,7a39.72,39.72,0,0,1-3.51-8.14c-2-6.31-7.72-5.61-10.13.4-2.46,6.17,0,12.59,6.89,22.65,7.17,10.45,22,25.79,27.17,30.5,7.77,7,11.63,3.18,17.92-3.32,9.07-9.38,22.65-24.61,22.65-24.61L343.52,142Z" style="fill: rgb(255, 168, 167); transform-origin: 311.35px 151.53px;" id="el13xr774a0nqn" class="animable"></path><path d="M381.13,180.64c.94-3.73,1.49-7.7,3.66-16-6-9.25-8.62-20.86-4.14-30.52l-10.19-.63c-4.77-.3-12.49-1.08-16.39-1.3l-3.92-.65C344.74,137.32,337,141.7,332.52,149c-4.24,6.88-3.53,14.69,2,21.51.19,3.55,2.55,15.84,2.57,18.57h0v1s5,6.08,19.39,6.24c12.66.15,23.78-6.84,23.78-6.84A24.72,24.72,0,0,1,381.13,180.64Z" style="fill: #BA68C8; transform-origin: 357.288px 163.931px;" id="elldefb5o8s9e" class="animable"></path><g id="elr1jxc0akhjb"><path d="M349.67,171s3.55,5,11.94,4.37,11.94-8.22,11.94-8.22-1.1,9.31-10.51,10.39C351.75,178.86,349.67,171,349.67,171Z" style="opacity: 0.1; transform-origin: 361.61px 172.42px;" class="animable" id="el6nwvvdht9sp"></path></g><path d="M379,87.14c2.77,2.33,6.33,7.51,6.72,23,.32,13.17-3.62,16.61-5.63,17.65s-5.61.65-9.5.16v5.05s0,2.63-3.83,5.45c-2.93,2.16-9.18,4.27-12.63,1.83-3.07-2.17,0-8.21,0-8.21v-13s-3.33,2.4-7.35-.92c-3.31-2.74-4.61-7.57-2.26-10.3a5.43,5.43,0,0,1,8.89,1.41A30.68,30.68,0,0,0,368,104.49,23.88,23.88,0,0,0,379,87.14Z" style="fill: rgb(255, 168, 167); transform-origin: 364.531px 114.256px;" id="el6ph99r9apk4" class="animable"></path><path d="M370.56,128c-4.09-.36-13-2.46-14.43-5.84a9,9,0,0,0,3.14,4.25c2.6,2.11,11.29,4.25,11.29,4.25Z" style="fill: rgb(242, 143, 143); transform-origin: 363.345px 126.41px;" id="elmi4g8r7qebe" class="animable"></path><path d="M370.43,107.74a2.72,2.72,0,0,1-5.28.43,3.91,3.91,0,0,0,2.71.79A4,4,0,0,0,370.43,107.74Z" style="fill: rgb(38, 50, 56); transform-origin: 367.79px 108.899px;" id="elvlyz3bqhz2" class="animable"></path><path d="M384.13,106.56a2.72,2.72,0,0,1-5.3.09,4,4,0,0,0,5.3-.09Z" style="fill: rgb(38, 50, 56); transform-origin: 381.48px 107.637px;" id="elqpow4chpu0o" class="animable"></path><path d="M367.79,101.46l-3.62,1.9a2.14,2.14,0,0,1,.89-2.83A2,2,0,0,1,367.79,101.46Z" style="fill: rgb(38, 50, 56); transform-origin: 365.868px 101.833px;" id="el2zrvya6u9nw" class="animable"></path><path d="M371,118.9l3.9,1.18a2,2,0,0,1-2.51,1.43A2.13,2.13,0,0,1,371,118.9Z" style="fill: rgb(242, 143, 143); transform-origin: 372.909px 120.247px;" id="el5waa7doavap" class="animable"></path><path d="M383.92,102.13l-3.42-2.29a2,2,0,0,1,2.8-.62A2.16,2.16,0,0,1,383.92,102.13Z" style="fill: rgb(38, 50, 56); transform-origin: 382.369px 100.511px;" id="elgbcz7uw108d" class="animable"></path><polygon points="373.92 105.25 375.13 115.25 380.25 113.12 373.92 105.25" style="fill: rgb(242, 143, 143); transform-origin: 377.085px 110.25px;" id="elcvk9lw8vp3" class="animable"></polygon><path d="M439.16,116c-.76-12.18-2.77-18.75-8.52-22.09-2.6-1.52-5.07-1.68-6.72-.79-1.9,1-2.73,3.39-1.5,6.7a40.18,40.18,0,0,1,2.25,8.58S421,103,417.72,105c-3,1.81,1.62,2.44,4,7.93,2.06,4.84,4.21,5,4.27,8,0,.85-.31,3.53-.79,6.91-.76,5.29-1.87,12.31-2.59,16.71-.4,2.52-.68,4.18-.68,4.18s-2.77-.85-6.15-2c-4.3-1.5-9.23-3.86-13.56-5.88-8.47-3.93-14.19-7-21.54-6.71,0,0-5.45,3.74-3.86,15.08,1.68,11.91,8,15.45,8,15.45.85-3.15,1.22-5.27,1.91-8.39,7.64,3.72,26,8.32,34.26,11.07,8.57,2.86,12.62,2.18,14.72-5.44.8-2.9,1.95-12,2.73-21.73A194.21,194.21,0,0,0,439.16,116Z" style="fill: rgb(255, 168, 167); transform-origin: 407.896px 130.741px;" id="elecqu75ypuhe" class="animable"></path><path d="M336.75,186.06s19.41,11.79,43.5-.66l2.53,7.92c-7.84,7.77-31.67,11.91-45.7,2.07Z" style="fill: rgb(69, 90, 100); transform-origin: 359.765px 193.279px;" id="elgoi2fgemtnl" class="animable"></path><path d="M355.35,79.13c-5.45,3.13-10.74,10.11-10.41,24.49a7.61,7.61,0,0,0-3.48,7.34c.36,4.49,3.84,8.13,7.78,8.12s6.84-3.66,6.49-8.15a9.06,9.06,0,0,0-4.93-7.48c0-.11-1.39-4.92,2.53-13.62,4.81-10.7,19.81-13,26.24-12.49C379.57,75.67,366.41,72.79,355.35,79.13Z" style="fill: #BA68C8; transform-origin: 360.488px 97.1489px;" id="elk8zn3ylqsa" class="animable"></path><g id="el86lwsgcqeo3"><path d="M355.35,79.13c-5.45,3.13-10.74,10.11-10.41,24.49a7.61,7.61,0,0,0-3.48,7.34c.36,4.49,3.84,8.13,7.78,8.12s6.84-3.66,6.49-8.15a9.06,9.06,0,0,0-4.93-7.48c0-.11-1.39-4.92,2.53-13.62,4.81-10.7,19.81-13,26.24-12.49C379.57,75.67,366.41,72.79,355.35,79.13Z" style="opacity: 0.45; transform-origin: 360.488px 97.1489px;" class="animable" id="elovo0vl04ig"></path></g><path d="M355.84,110.93c-.36-4.57-3.9-8.26-7.9-8.25a6.2,6.2,0,0,0-1.79.27c-.48.15-2,.78-2.26.89-2.79,1.11-4.61,4.2-4.32,7.84.36,4.56,3.89,8.26,7.89,8.25a6.13,6.13,0,0,0,2.15-.4c.35-.13,1.74-.69,2.08-.84C354.38,117.53,356.12,114.49,355.84,110.93Z" style="fill: #BA68C8; transform-origin: 347.705px 111.305px;" id="elltfb4536dc" class="animable"></path><g id="elcp82xmvh95e"><path d="M355.84,110.93c-.36-4.57-3.9-8.26-7.9-8.25a6.2,6.2,0,0,0-1.79.27c-.48.15-2,.78-2.26.89-2.79,1.11-4.61,4.2-4.32,7.84.36,4.56,3.89,8.26,7.89,8.25a6.13,6.13,0,0,0,2.15-.4c.35-.13,1.74-.69,2.08-.84C354.38,117.53,356.12,114.49,355.84,110.93Z" style="opacity: 0.3; transform-origin: 347.705px 111.305px;" class="animable" id="eleb8dq4uvept"></path></g><path d="M354.05,111.65c-.36-4.57-3.89-8.26-7.89-8.25s-7,3.72-6.59,8.28,3.89,8.26,7.89,8.25S354.41,116.21,354.05,111.65Z" style="fill: #BA68C8; transform-origin: 346.806px 111.665px;" id="elzsgf80z0xt" class="animable"></path><g id="el64rit5dg51j"><path d="M354.05,111.65c-.36-4.57-3.89-8.26-7.89-8.25s-7,3.72-6.59,8.28,3.89,8.26,7.89,8.25S354.41,116.21,354.05,111.65Z" style="opacity: 0.1; transform-origin: 346.806px 111.665px;" class="animable" id="elhdjjws8k1bb"></path></g><path d="M350.23,111.66a4,4,0,0,0-3.73-3.89c-1.89,0-3.28,1.75-3.11,3.9a4,4,0,0,0,3.73,3.89C349,115.56,350.4,113.81,350.23,111.66Z" style="fill: rgb(69, 90, 100); transform-origin: 346.81px 111.665px;" id="elk724mt9mkzq" class="animable"></path></g></g><g id="freepik--musical-notes--inject-38" class="animable" style="transform-origin: 359.54px 139.682px;"><path id="freepik--musical-note--inject-38" d="M293.89,88.24l6.22,14.23a3.8,3.8,0,0,0-1.34.32,4.06,4.06,0,1,0,5.36,2.08l-5.57-12.76,11.36-9h0l5.55,12.63a3.86,3.86,0,0,0-1.35.32,4.06,4.06,0,1,0,5.36,2.09h0l-9.26-21.09Z" style="fill: #BA68C8; transform-origin: 306.855px 93.8114px;" class="animable"></path><path id="freepik--musical-note--inject-38" d="M411.73,184.11a5.78,5.78,0,0,1,2.36-.1,11.93,11.93,0,0,1,3,1,22.23,22.23,0,0,0,4,1.54,5.26,5.26,0,0,0,4.1-.56,5.54,5.54,0,0,1-2.33-.8c-1.69-1.06-2.78-3.26-4.22-4.64-2.14-2.06-4.6-2.43-7.74-2.27-.51,2.55-1.09,5.09-1.63,7.64q-.64,3-1.28,6c0,.19-.65,2.7-.65,2.7a5.49,5.49,0,0,0-2.12-1,4.39,4.39,0,1,0,3.38,5.2Z" style="fill: #BA68C8; transform-origin: 412.552px 190.275px;" class="animable"></path></g><defs>     <filter id="active" height="200%">         <feMorphology in="SourceAlpha" result="DILATED" operator="dilate" radius="2"></feMorphology>                <feFlood flood-color="#32DFEC" flood-opacity="1" result="PINK"></feFlood>        <feComposite in="PINK" in2="DILATED" operator="in" result="OUTLINE"></feComposite>        <feMerge>            <feMergeNode in="OUTLINE"></feMergeNode>            <feMergeNode in="SourceGraphic"></feMergeNode>        </feMerge>    </filter>    <filter id="hover" height="200%">        <feMorphology in="SourceAlpha" result="DILATED" operator="dilate" radius="2"></feMorphology>                <feFlood flood-color="#ff0000" flood-opacity="0.5" result="PINK"></feFlood>        <feComposite in="PINK" in2="DILATED" operator="in" result="OUTLINE"></feComposite>        <feMerge>            <feMergeNode in="OUTLINE"></feMergeNode>            <feMergeNode in="SourceGraphic"></feMergeNode>        </feMerge>            <feColorMatrix type="matrix" values="0   0   0   0   0                0   1   0   0   0                0   0   0   0   0                0   0   0   1   0 "></feColorMatrix>    </filter></defs></svg>