<?xml version="1.0" encoding="utf-8"?>
<!-- Generator: Adobe Illustrator 26.0.0, SVG Export Plug-In . SVG Version: 6.00 Build 0)  -->
<svg version="1.1" id="Camada_1" xmlns="http://www.w3.org/2000/svg" xmlns:xlink="http://www.w3.org/1999/xlink" x="0px" y="0px"
	 viewBox="0 0 1480 654.03" style="enable-background:new 0 0 1480 654.03;" xml:space="preserve">
<style type="text/css">
	.st0{clip-path:url(#SVGID_00000047056227512090540050000001359746228566716581_);fill:#41AF88;}
	.st1{clip-path:url(#SVGID_00000047056227512090540050000001359746228566716581_);fill:#FFFFFF;}
</style>
<g>
	<defs>
		<rect id="SVGID_1_" width="1480" height="654.03"/>
	</defs>
	<clipPath id="SVGID_00000134223460378786663730000016521182157916673169_">
		<use xlink:href="#SVGID_1_"  style="overflow:visible;"/>
	</clipPath>
	<path style="clip-path:url(#SVGID_00000134223460378786663730000016521182157916673169_);fill:#41AF88;" d="M1479.65,155.16
		C1479.65,69.03,1405.69,0,1312.49,0c-93.2,0-168.76,65.83-168.76,151.96c0,2.41-0.12,8.81,0,11.2v94.34
		c0,7.09,5.74,12.83,12.83,12.83h0.97c3.91,26.45,19.05,48.86,39.98,61.34c15.99,9.54,37.4-1.15,37.4-18.39V199
		c0-16.72-20.59-26.85-36.28-17.85c-6.01,3.45-11.55,7.71-16.51,12.64v-30.63c4.47-72.65,60.93-130.09,129.57-130.09
		s125.1,57.44,129.57,130.09v32.27c-5.36-5.63-11.45-10.46-18.11-14.28c-15.69-9.01-36.28,1.12-36.28,17.85v114.29
		c0,17.24,21.4,27.93,37.4,18.39c20.93-12.48,36.06-34.89,39.98-61.34h2.57c7.09,0,12.83-5.75,12.83-12.83v-94.34
		C1479.76,160.78,1479.65,157.58,1479.65,155.16"/>
	<path style="clip-path:url(#SVGID_00000134223460378786663730000016521182157916673169_);fill:#FFFFFF;" d="M697.43,108.77
		c-25.14,0-48.37,8.18-67.18,22.02v-95.6l-63.98,30.39v1.6V269.4v64.92h62.39h1.6V313.9c18.82,13.83,42.04,22.02,67.18,22.02
		c62.73,0,113.57-50.85,113.57-113.57C811.01,159.62,760.16,108.77,697.43,108.77 M685.44,284.73c-30.48,0-55.19-27.57-55.19-61.58
		c0-34.01,24.71-61.59,55.19-61.59c30.48,0,55.19,27.57,55.19,61.59C740.62,257.16,715.92,284.73,685.44,284.73"/>
	<polygon style="clip-path:url(#SVGID_00000134223460378786663730000016521182157916673169_);fill:#FFFFFF;" points="473.49,108.77 
		427.64,224.36 386.97,108.57 313.52,108.57 390.57,317.82 359.91,395.11 439.89,395.11 551.87,108.77 	"/>
	<path style="clip-path:url(#SVGID_00000134223460378786663730000016521182157916673169_);fill:#FFFFFF;" d="M967.77,281.53
		c-53.69,0-71.98-20.79-78.38-46.39h165.46c0.59-4.72,0.9-9.52,0.9-14.4c0-63.61-51.56-115.17-115.17-115.17
		S825.4,157.14,825.4,220.75c0,53.81,36.9,98.99,86.78,111.64c2.1,0.68,4.66,1.24,7.74,1.66c0.04,0,0.07,0.01,0.11,0.01
		c6.67,1.2,13.53,1.86,20.55,1.86c0.89,0,1.77-0.05,2.66-0.07c60.87,1.5,112.51-20.73,112.51-20.73l-16-51.19
		C1025.36,275.13,992.52,281.53,967.77,281.53 M945.37,161.56c26.11,0,47.28,20.05,47.28,44.79H898.1
		C898.1,181.61,919.26,161.56,945.37,161.56"/>
	<path style="clip-path:url(#SVGID_00000134223460378786663730000016521182157916673169_);fill:#FFFFFF;" d="M560.6,484.2v116.07
		c0,11.42,2.17,19.29,6.5,23.62c4.33,4.34,11.98,6.51,22.94,6.51h21.91v20.54h-25.68c-16.9,0-29.45-3.94-37.66-11.81
		c-8.22-7.87-12.33-20.83-12.33-38.86V484.2h-42.01V464h42.01v-67.29h24.31V464h61.65v20.2H560.6z"/>
	<path style="clip-path:url(#SVGID_00000134223460378786663730000016521182157916673169_);fill:#FFFFFF;" d="M826.09,464v186.95
		h-23.97v-32.87c-5.48,11.64-13.93,20.54-25.34,26.71c-11.42,6.16-24.2,9.24-38.35,9.24c-22.37,0-40.63-6.9-54.78-20.71
		c-14.16-13.81-21.23-33.84-21.23-60.09V464h23.63v106.49c0,20.32,5.08,35.84,15.24,46.57c10.15,10.73,24.02,16.09,41.6,16.09
		c18.03,0,32.41-5.7,43.14-17.12c10.73-11.41,16.1-28.19,16.1-50.33V464H826.09z"/>
	<path style="clip-path:url(#SVGID_00000134223460378786663730000016521182157916673169_);fill:#FFFFFF;" d="M1024.91,481.29
		c14.15,13.81,21.23,33.84,21.23,60.09v109.57h-23.62V544.12c0-20.31-5.08-35.84-15.24-46.57c-10.16-10.73-24.03-16.09-41.6-16.09
		c-18.04,0-32.42,5.71-43.14,17.12c-10.73,11.42-16.09,28.19-16.09,50.33v102.04h-23.97V464h23.97v31.84
		c5.93-11.41,14.49-20.14,25.68-26.19c11.18-6.04,23.85-9.07,38.01-9.07C992.49,460.58,1010.75,467.48,1024.91,481.29"/>
	<path style="clip-path:url(#SVGID_00000134223460378786663730000016521182157916673169_);fill:#FFFFFF;" d="M1283.67,566.72
		h-155.11c0.68,14.16,4.11,26.25,10.27,36.29c6.16,10.05,14.26,17.63,24.31,22.77c10.04,5.13,21,7.7,32.87,7.7
		c15.52,0,28.59-3.77,39.2-11.3c10.61-7.53,17.63-17.69,21.06-30.47h25.34c-4.57,18.27-14.33,33.16-29.27,44.68
		c-14.95,11.53-33.73,17.29-56.33,17.29c-17.58,0-33.33-3.94-47.25-11.81c-13.93-7.88-24.82-19.06-32.7-33.55
		c-7.88-14.49-11.81-31.44-11.81-50.85c0-19.4,3.88-36.41,11.64-51.02c7.76-14.61,18.6-25.79,32.53-33.56
		c13.92-7.76,29.79-11.64,47.59-11.64c17.8,0,33.38,3.88,46.74,11.64c13.35,7.76,23.63,18.21,30.82,31.33
		c7.19,13.13,10.79,27.68,10.79,43.66C1284.35,556.1,1284.12,562.39,1283.67,566.72 M1251.65,511.59
		c-5.82-9.81-13.76-17.23-23.8-22.26c-10.05-5.02-21-7.53-32.87-7.53c-17.8,0-32.99,5.71-45.54,17.12
		c-12.56,11.42-19.52,27.51-20.89,48.28h131.48C1260.27,533.28,1257.47,521.41,1251.65,511.59"/>
	<path style="clip-path:url(#SVGID_00000134223460378786663730000016521182157916673169_);fill:#FFFFFF;" d="M1362.38,638.8
		c-13.58-9.93-21.18-23.46-22.77-40.58h24.65c1.14,10.5,6.1,19,14.9,25.51c8.78,6.51,20.6,9.76,35.44,9.76
		c13.01,0,23.22-3.08,30.65-9.24c7.42-6.16,11.13-13.81,11.13-22.94c0-6.39-2.05-11.64-6.16-15.75c-4.11-4.11-9.3-7.36-15.58-9.76
		c-6.28-2.4-14.78-4.96-25.51-7.71c-13.93-3.65-25.23-7.3-33.9-10.96c-8.68-3.65-16.04-9.07-22.09-16.26
		c-6.05-7.19-9.07-16.83-9.07-28.93c0-9.13,2.74-17.58,8.22-25.34c5.48-7.76,13.24-13.92,23.28-18.49
		c10.04-4.57,21.45-6.85,34.24-6.85c20.08,0,36.29,5.08,48.62,15.24c12.33,10.16,18.94,24.14,19.86,41.95h-23.97
		c-0.69-10.96-4.97-19.8-12.84-26.54c-7.87-6.73-18.66-10.1-32.36-10.1c-12.1,0-21.91,2.86-29.45,8.56
		c-7.53,5.71-11.3,12.79-11.3,21.23c0,7.31,2.23,13.3,6.68,17.98c4.45,4.68,9.98,8.34,16.61,10.96c6.62,2.63,15.52,5.54,26.71,8.73
		c13.47,3.65,24.19,7.19,32.19,10.62c7.99,3.42,14.83,8.45,20.54,15.06c5.7,6.62,8.67,15.41,8.9,26.36
		c0,10.05-2.74,19.01-8.22,26.88c-5.48,7.88-13.13,14.1-22.94,18.66c-9.82,4.56-21.12,6.85-33.9,6.85
		C1393.48,653.69,1375.96,648.73,1362.38,638.8"/>
	<path style="clip-path:url(#SVGID_00000134223460378786663730000016521182157916673169_);fill:#FFFFFF;" d="M281.53,110.37
		c0,0-36.49-0.22-57.59,35.59v-30.79h-60.79v215.95h62.39v-87.98l-0.83-39.16c0,0,12.03-47.22,82.41-34.43
		C283.13,111.97,281.53,110.37,281.53,110.37"/>
	<path style="clip-path:url(#SVGID_00000134223460378786663730000016521182157916673169_);fill:#FFFFFF;" d="M119.97,270.66
		c-7.23,3.52-16.87,6.25-25.59,6.25c-16.54,0-31.56-10.72-31.95-27.91h-0.04v-83.72h63.98v-52.71H62.39V30.39L0,61.4v51.16v52.71
		V249v12.34c0,39.42,32.97,71.38,73.65,71.38h1.63c17.12,0,34.03-8.17,44.69-20.7V270.66z"/>
</g>
</svg>
